# This file uses centimeters as units for non-parametric coordinates.

mtllib pipewater.mtl
g default
v 1.000000 0.809017 -0.587785
v 1.000000 0.309017 -0.951057
v 1.000000 -0.309017 -0.951057
v 1.000000 -0.809017 -0.587785
v 1.000000 -1.000000 0.000000
v 1.000000 -0.809017 0.587785
v 1.000000 -0.309017 0.951057
v 1.000000 0.309017 0.951057
v 1.000000 0.809017 0.587785
v 1.000000 1.000000 0.000000
v -6.393423 0.809017 -0.587785
v -6.393423 0.309017 -0.951057
v -6.393423 -0.309017 -0.951057
v -6.393423 -0.809017 -0.587785
v -6.393423 -1.000000 0.000000
v -6.393423 -0.809017 0.587785
v -6.393423 -0.309017 0.951057
v -6.393423 0.309017 0.951057
v -6.393423 0.809017 0.587785
v -6.393423 1.000000 0.000000
v -1.018832 0.269672 -0.195928
v -1.018832 0.103006 -0.317019
v -1.018832 0.206011 -0.634038
v -1.018832 0.539345 -0.391857
v -1.018832 -0.103006 -0.317019
v -1.018832 -0.206011 -0.634038
v -1.018832 -0.269672 -0.195928
v -1.018832 -0.539345 -0.391857
v -1.018832 -0.333333 0.000000
v -1.018832 -0.666667 0.000000
v -1.018832 -0.269672 0.195928
v -1.018832 -0.539345 0.391857
v -1.018832 -0.103006 0.317019
v -1.018832 -0.206011 0.634038
v -1.018832 0.103006 0.317019
v -1.018832 0.206011 0.634038
v -1.018832 0.269672 0.195928
v -1.018832 0.539345 0.391857
v -1.018832 0.333333 0.000000
v -1.018832 0.666667 0.000000
v -1.018832 0.000000 0.000000
v 1.563618 0.539345 -0.391857
v 1.563618 0.206011 -0.634038
v 1.645201 0.431153 -1.326952
v 1.645201 1.128773 -0.820101
v 1.563618 -0.206011 -0.634038
v 1.645201 -0.431153 -1.326952
v 1.563618 -0.539345 -0.391857
v 1.645201 -1.128773 -0.820101
v 1.563618 -0.666667 0.000000
v 1.645201 -1.395240 0.000000
v 1.563618 -0.539345 0.391857
v 1.645201 -1.128772 0.820101
v 1.563618 -0.206011 0.634038
v 1.645201 -0.431153 1.326952
v 1.563618 0.206011 0.634038
v 1.645201 0.431153 1.326952
v 1.563618 0.539345 0.391857
v 1.645201 1.128773 0.820101
v 1.563618 0.666667 0.000000
v 1.645201 1.395240 0.000000
v 0.923696 1.133924 -0.823844
v 0.923696 0.433120 -1.333007
v 0.923696 -0.433120 -1.333007
v 0.923696 -1.133924 -0.823844
v 0.923696 -1.401607 0.000000
v 0.923696 -1.133924 0.823844
v 0.923696 -0.433120 1.333007
v 0.923696 0.433120 1.333007
v 0.923696 1.133924 0.823844
v 0.923696 1.401606 0.000000
v -6.393422 0.000000 0.000000
vt 0.542136 0.125636
vt 0.516095 0.106716
vt 0.532189 0.057182
vt 0.584273 0.095022
vt 0.483905 0.106716
vt 0.467811 0.057182
vt 0.457864 0.125636
vt 0.415727 0.095022
vt 0.447917 0.156250
vt 0.395833 0.156250
vt 0.457864 0.186864
vt 0.415727 0.217478
vt 0.483905 0.205784
vt 0.467811 0.255318
vt 0.516095 0.205784
vt 0.532189 0.255318
vt 0.542136 0.186864
vt 0.584273 0.217478
vt 0.552083 0.156250
vt 0.604167 0.156250
vt 0.584273 0.095022
vt 0.532189 0.057182
vt 0.548284 0.007647
vt 0.626409 0.064409
vt 0.467811 0.057182
vt 0.451716 0.007647
vt 0.415727 0.095022
vt 0.373591 0.064409
vt 0.395833 0.156250
vt 0.343750 0.156250
vt 0.415727 0.217478
vt 0.373591 0.248091
vt 0.467811 0.255318
vt 0.451716 0.304853
vt 0.532189 0.255318
vt 0.548284 0.304853
vt 0.584273 0.217478
vt 0.626409 0.248091
vt 0.604167 0.156250
vt 0.656250 0.156250
vt 0.375000 0.312500
vt 0.400000 0.312500
vt 0.400000 0.688440
vt 0.375000 0.688440
vt 0.425000 0.312500
vt 0.425000 0.688440
vt 0.450000 0.312500
vt 0.450000 0.688440
vt 0.475000 0.312500
vt 0.475000 0.688440
vt 0.500000 0.312500
vt 0.500000 0.688440
vt 0.525000 0.312500
vt 0.525000 0.688440
vt 0.550000 0.312500
vt 0.550000 0.688440
vt 0.575000 0.312500
vt 0.575000 0.688440
vt 0.600000 0.312500
vt 0.600000 0.688440
vt 0.625000 0.312500
vt 0.625000 0.688440
vt 0.500000 0.150000
vt 0.548284 0.007647
vt 0.626409 0.064409
vt 0.451716 0.007647
vt 0.373591 0.064409
vt 0.343750 0.156250
vt 0.373591 0.248091
vt 0.451716 0.304853
vt 0.548284 0.304853
vt 0.626409 0.248091
vt 0.656250 0.156250
vt 0.548284 0.007647
vt 0.626409 0.064409
vt 0.451716 0.007647
vt 0.373591 0.064409
vt 0.343750 0.156250
vt 0.373591 0.248091
vt 0.451716 0.304853
vt 0.548284 0.304853
vt 0.626409 0.248091
vt 0.656250 0.156250
vt 0.000000 0.000000
vt 1.000000 0.000000
vt 0.500000 1.000000
vt 0.000000 0.000000
vt 1.000000 0.000000
vt 0.500000 1.000000
vt 0.000000 0.000000
vt 1.000000 0.000000
vt 0.500000 1.000000
vt 0.000000 0.000000
vt 1.000000 0.000000
vt 0.500000 1.000000
vt 0.000000 0.000000
vt 1.000000 0.000000
vt 0.500000 1.000000
vt 0.000000 0.000000
vt 1.000000 0.000000
vt 0.500000 1.000000
vt 0.000000 0.000000
vt 1.000000 0.000000
vt 0.500000 1.000000
vt 0.000000 0.000000
vt 1.000000 0.000000
vt 0.500000 1.000000
vt 0.000000 0.000000
vt 1.000000 0.000000
vt 0.500000 1.000000
vt 0.000000 0.000000
vt 1.000000 0.000000
vt 0.500000 1.000000
vn 1.000000 -0.000000 0.000000
vn 1.000000 -0.000000 0.000000
vn 1.000000 -0.000000 0.000000
vn 1.000000 -0.000000 0.000000
vn 1.000000 -0.000000 0.000000
vn 1.000000 -0.000000 0.000000
vn 1.000000 -0.000000 0.000000
vn 1.000000 -0.000000 0.000000
vn 1.000000 -0.000000 0.000000
vn 1.000000 -0.000000 0.000000
vn 1.000000 -0.000000 0.000000
vn 1.000000 -0.000000 0.000000
vn 1.000000 -0.000000 0.000000
vn 1.000000 -0.000000 0.000000
vn 1.000000 -0.000000 0.000000
vn 1.000000 -0.000000 0.000000
vn 1.000000 -0.000000 0.000000
vn 1.000000 -0.000000 0.000000
vn 1.000000 -0.000000 0.000000
vn 1.000000 -0.000000 0.000000
vn 1.000000 -0.000000 0.000000
vn 1.000000 -0.000000 0.000000
vn 1.000000 -0.000000 0.000000
vn 1.000000 -0.000000 0.000000
vn 1.000000 -0.000000 0.000000
vn 1.000000 -0.000000 0.000000
vn 1.000000 -0.000000 0.000000
vn 1.000000 -0.000000 0.000000
vn 1.000000 -0.000000 0.000000
vn 1.000000 -0.000000 0.000000
vn 1.000000 -0.000000 0.000000
vn 1.000000 -0.000000 0.000000
vn 1.000000 -0.000000 0.000000
vn 1.000000 -0.000000 0.000000
vn 1.000000 -0.000000 0.000000
vn 1.000000 -0.000000 0.000000
vn 1.000000 -0.000000 0.000000
vn 1.000000 -0.000000 0.000000
vn 1.000000 -0.000000 0.000000
vn 1.000000 -0.000000 0.000000
vn 0.993789 -0.090028 0.065409
vn 0.993789 -0.034388 0.105835
vn 0.993789 -0.034388 0.105835
vn 0.993789 -0.090028 0.065409
vn 0.993789 -0.034388 0.105835
vn 0.993789 0.034388 0.105835
vn 0.993789 0.034388 0.105835
vn 0.993789 -0.034388 0.105835
vn 0.993789 0.034388 0.105835
vn 0.993789 0.090028 0.065409
vn 0.993789 0.090028 0.065409
vn 0.993789 0.034388 0.105835
vn 0.993789 0.090028 0.065409
vn 0.993789 0.111281 0.000000
vn 0.993789 0.111281 0.000000
vn 0.993789 0.090028 0.065409
vn 0.993789 0.111281 0.000000
vn 0.993789 0.090028 -0.065410
vn 0.993789 0.090028 -0.065410
vn 0.993789 0.111281 0.000000
vn 0.993789 0.090028 -0.065410
vn 0.993789 0.034388 -0.105835
vn 0.993789 0.034388 -0.105835
vn 0.993789 0.090028 -0.065410
vn 0.993789 0.034388 -0.105835
vn 0.993789 -0.034388 -0.105835
vn 0.993789 -0.034388 -0.105835
vn 0.993789 0.034388 -0.105835
vn 0.993789 -0.034388 -0.105835
vn 0.993789 -0.090028 -0.065409
vn 0.993789 -0.090028 -0.065409
vn 0.993789 -0.034388 -0.105835
vn 0.993789 -0.090028 -0.065409
vn 0.993789 -0.111281 0.000000
vn 0.993789 -0.111281 0.000000
vn 0.993789 -0.090028 -0.065409
vn 0.993789 -0.111281 0.000000
vn 0.993789 -0.090028 0.065409
vn 0.993789 -0.090028 0.065409
vn 0.993789 -0.111281 0.000000
vn 0.000000 0.587785 -0.809017
vn 0.000000 0.587785 -0.809017
vn 0.000000 0.587785 -0.809017
vn 0.000000 0.587785 -0.809017
vn 0.000000 0.000000 -1.000000
vn 0.000000 0.000000 -1.000000
vn 0.000000 0.000000 -1.000000
vn 0.000000 0.000000 -1.000000
vn -0.000000 -0.587785 -0.809017
vn -0.000000 -0.587785 -0.809017
vn -0.000000 -0.587785 -0.809017
vn -0.000000 -0.587785 -0.809017
vn -0.000000 -0.951057 -0.309017
vn -0.000000 -0.951057 -0.309017
vn -0.000000 -0.951057 -0.309017
vn -0.000000 -0.951057 -0.309017
vn -0.000000 -0.951057 0.309017
vn -0.000000 -0.951057 0.309017
vn -0.000000 -0.951057 0.309017
vn -0.000000 -0.951057 0.309017
vn -0.000000 -0.587785 0.809017
vn -0.000000 -0.587785 0.809017
vn -0.000000 -0.587785 0.809017
vn -0.000000 -0.587785 0.809017
vn 0.000000 0.000000 1.000000
vn 0.000000 0.000000 1.000000
vn 0.000000 0.000000 1.000000
vn 0.000000 0.000000 1.000000
vn 0.000000 0.587785 0.809017
vn 0.000000 0.587785 0.809017
vn 0.000000 0.587785 0.809017
vn 0.000000 0.587785 0.809017
vn 0.000000 0.951057 0.309017
vn 0.000000 0.951057 0.309017
vn 0.000000 0.951057 0.309017
vn 0.000000 0.951057 0.309017
vn 0.000000 0.951057 -0.309017
vn 0.000000 0.951057 -0.309017
vn 0.000000 0.951057 -0.309017
vn 0.000000 0.951057 -0.309017
vn 1.000000 -0.000000 0.000000
vn 1.000000 -0.000000 0.000000
vn 1.000000 -0.000000 0.000000
vn 1.000000 -0.000000 0.000000
vn 1.000000 -0.000000 0.000000
vn 1.000000 -0.000000 0.000000
vn 1.000000 -0.000000 0.000000
vn 1.000000 -0.000000 0.000000
vn 1.000000 -0.000000 0.000000
vn 1.000000 -0.000000 0.000000
vn 1.000000 -0.000000 0.000000
vn 1.000000 -0.000000 0.000000
vn 1.000000 -0.000000 0.000000
vn 1.000000 -0.000000 0.000000
vn 1.000000 -0.000000 0.000000
vn 1.000000 -0.000000 0.000000
vn 1.000000 -0.000000 0.000000
vn 1.000000 -0.000000 0.000000
vn 1.000000 -0.000000 0.000000
vn 1.000000 -0.000000 0.000000
vn 1.000000 -0.000000 0.000000
vn 1.000000 -0.000000 0.000000
vn 1.000000 -0.000000 0.000000
vn 1.000000 -0.000000 0.000000
vn 1.000000 -0.000000 0.000000
vn 1.000000 -0.000000 0.000000
vn 1.000000 -0.000000 0.000000
vn 1.000000 -0.000000 0.000000
vn 1.000000 -0.000000 0.000000
vn 1.000000 -0.000000 0.000000
vn 0.008392 0.587765 -0.808988
vn 0.008392 0.587765 -0.808988
vn 0.008392 0.587765 -0.808988
vn 0.008392 0.587765 -0.808988
vn 0.008392 -0.000000 -0.999965
vn 0.008392 -0.000000 -0.999965
vn 0.008392 -0.000000 -0.999965
vn 0.008392 -0.000000 -0.999965
vn 0.008392 -0.587765 -0.808988
vn 0.008392 -0.587765 -0.808988
vn 0.008392 -0.587765 -0.808988
vn 0.008392 -0.587765 -0.808988
vn 0.008393 -0.951023 -0.309006
vn 0.008393 -0.951023 -0.309006
vn 0.008393 -0.951023 -0.309006
vn 0.008393 -0.951023 -0.309006
vn 0.008393 -0.951023 0.309006
vn 0.008393 -0.951023 0.309006
vn 0.008393 -0.951023 0.309006
vn 0.008393 -0.951023 0.309006
vn 0.008392 -0.587764 0.808989
vn 0.008392 -0.587764 0.808989
vn 0.008392 -0.587764 0.808989
vn 0.008392 -0.587764 0.808989
vn 0.008392 -0.000000 0.999965
vn 0.008392 -0.000000 0.999965
vn 0.008392 -0.000000 0.999965
vn 0.008392 -0.000000 0.999965
vn 0.008392 0.587764 0.808989
vn 0.008392 0.587765 0.808989
vn 0.008392 0.587765 0.808989
vn 0.008392 0.587765 0.808989
vn 0.008392 0.951023 0.309006
vn 0.008392 0.951023 0.309006
vn 0.008392 0.951023 0.309006
vn 0.008392 0.951023 0.309006
vn 0.008392 0.951023 -0.309006
vn 0.008392 0.951023 -0.309006
vn 0.008392 0.951023 -0.309006
vn 0.008392 0.951023 -0.309006
vn -0.000000 -0.587785 0.809017
vn -0.000000 -0.587785 0.809017
vn -0.000000 -0.587785 0.809017
vn -0.000000 -0.587785 0.809017
vn 0.000000 0.000000 1.000000
vn 0.000000 0.000000 1.000000
vn 0.000000 0.000000 1.000000
vn 0.000000 0.000000 1.000000
vn 0.000000 0.587785 0.809017
vn 0.000000 0.587785 0.809017
vn 0.000000 0.587785 0.809017
vn 0.000000 0.587785 0.809017
vn 0.000000 0.951057 0.309017
vn 0.000000 0.951057 0.309017
vn 0.000000 0.951057 0.309017
vn 0.000000 0.951057 0.309017
vn 0.000000 0.951057 -0.309017
vn 0.000000 0.951057 -0.309017
vn 0.000000 0.951057 -0.309017
vn 0.000000 0.951057 -0.309017
vn 0.000000 0.587785 -0.809017
vn 0.000000 0.587785 -0.809017
vn 0.000000 0.587785 -0.809017
vn 0.000000 0.587785 -0.809017
vn 0.000000 0.000000 -1.000000
vn 0.000000 0.000000 -1.000000
vn 0.000000 0.000000 -1.000000
vn 0.000000 0.000000 -1.000000
vn -0.000000 -0.587785 -0.809017
vn -0.000000 -0.587785 -0.809017
vn -0.000000 -0.587785 -0.809017
vn -0.000000 -0.587785 -0.809017
vn -0.000000 -0.951057 -0.309017
vn -0.000000 -0.951057 -0.309017
vn -0.000000 -0.951057 -0.309017
vn -0.000000 -0.951057 -0.309017
vn -0.000000 -0.951057 0.309017
vn -0.000000 -0.951057 0.309017
vn -0.000000 -0.951057 0.309017
vn -0.000000 -0.951057 0.309017
vn -0.982425 -0.057681 0.177523
vn -0.982425 -0.151010 0.109715
vn -0.982425 -0.151010 0.109715
vn -0.982425 -0.057681 0.177523
vn -0.982425 0.057681 0.177523
vn -0.982425 -0.057681 0.177523
vn -0.982425 -0.057681 0.177523
vn -0.982425 0.057681 0.177523
vn -0.982425 0.151010 0.109715
vn -0.982425 0.057681 0.177523
vn -0.982425 0.057681 0.177523
vn -0.982425 0.151010 0.109715
vn -0.982425 0.186659 0.000000
vn -0.982425 0.151010 0.109715
vn -0.982425 0.151010 0.109715
vn -0.982425 0.186659 0.000000
vn -0.982425 0.151010 -0.109715
vn -0.982425 0.186659 0.000000
vn -0.982425 0.186659 0.000000
vn -0.982425 0.151010 -0.109715
vn -0.982425 0.057681 -0.177523
vn -0.982425 0.151010 -0.109715
vn -0.982425 0.151010 -0.109715
vn -0.982425 0.057681 -0.177523
vn -0.982425 -0.057681 -0.177523
vn -0.982425 0.057681 -0.177523
vn -0.982425 0.057681 -0.177523
vn -0.982425 -0.057681 -0.177523
vn -0.982425 -0.151010 -0.109715
vn -0.982425 -0.057681 -0.177523
vn -0.982425 -0.057681 -0.177523
vn -0.982425 -0.151010 -0.109715
vn -0.982425 -0.186659 0.000000
vn -0.982425 -0.151010 -0.109715
vn -0.982425 -0.151010 -0.109715
vn -0.982425 -0.186659 0.000000
vn -0.982425 -0.151010 0.109715
vn -0.982425 -0.186659 0.000000
vn -0.982425 -0.186659 0.000000
vn -0.982425 -0.151010 0.109715
vn -1.000000 -0.000000 0.000000
vn -1.000000 0.000000 0.000000
vn -1.000000 0.000000 0.000000
vn -1.000000 0.000000 0.000000
vn -1.000000 0.000000 0.000000
vn -1.000000 0.000001 0.000000
vn -1.000000 0.000000 -0.000000
vn -1.000000 0.000000 -0.000000
vn -1.000000 0.000000 -0.000000
vn -1.000000 -0.000000 -0.000000
vn -1.000000 -0.000001 0.000000
s off
g pipe:pCylinder1
usemtl pipe:initialShadingGroup
f 21/1/1 22/2/2 23/3/3 24/4/4
f 22/2/5 25/5/6 26/6/7 23/3/8
f 25/5/9 27/7/10 28/8/11 26/6/12
f 27/7/13 29/9/14 30/10/15 28/8/16
f 29/9/17 31/11/18 32/12/19 30/10/20
f 31/11/21 33/13/22 34/14/23 32/12/24
f 33/13/25 35/15/26 36/16/27 34/14/28
f 35/15/29 37/17/30 38/18/31 36/16/32
f 37/17/33 39/19/34 40/20/35 38/18/36
f 39/19/37 21/1/38 24/4/39 40/20/40
f 42/21/41 43/22/42 44/23/43 45/24/44
f 43/22/45 46/25/46 47/26/47 44/23/48
f 46/25/49 48/27/50 49/28/51 47/26/52
f 48/27/53 50/29/54 51/30/55 49/28/56
f 50/29/57 52/31/58 53/32/59 51/30/60
f 52/31/61 54/33/62 55/34/63 53/32/64
f 54/33/65 56/35/66 57/36/67 55/34/68
f 56/35/69 58/37/70 59/38/71 57/36/72
f 58/37/73 60/39/74 61/40/75 59/38/76
f 60/39/77 42/21/78 45/24/79 61/40/80
f 1/41/81 2/42/82 12/43/83 11/44/84
f 2/42/85 3/45/86 13/46/87 12/43/88
f 3/45/89 4/47/90 14/48/91 13/46/92
f 4/47/93 5/49/94 15/50/95 14/48/96
f 5/49/97 6/51/98 16/52/99 15/50/100
f 6/51/101 7/53/102 17/54/103 16/52/104
f 7/53/105 8/55/106 18/56/107 17/54/108
f 8/55/109 9/57/110 19/58/111 18/56/112
f 9/57/113 10/59/114 20/60/115 19/58/116
f 10/59/117 1/61/118 11/62/119 20/60/120
f 22/2/121 21/1/122 41/63/123
f 25/5/124 22/2/125 41/63/126
f 27/7/127 25/5/128 41/63/129
f 29/9/130 27/7/131 41/63/132
f 31/11/133 29/9/134 41/63/135
f 33/13/136 31/11/137 41/63/138
f 35/15/139 33/13/140 41/63/141
f 37/17/142 35/15/143 41/63/144
f 39/19/145 37/17/146 41/63/147
f 21/1/148 39/19/149 41/63/150
f 63/64/151 62/65/152 45/24/153 44/23/154
f 64/66/155 63/64/156 44/23/157 47/26/158
f 65/67/159 64/66/160 47/26/161 49/28/162
f 66/68/163 65/67/164 49/28/165 51/30/166
f 67/69/167 66/68/168 51/30/169 53/32/170
f 68/70/171 67/69/172 53/32/173 55/34/174
f 69/71/175 68/70/176 55/34/177 57/36/178
f 70/72/179 69/71/180 57/36/181 59/38/182
f 71/73/183 70/72/184 59/38/185 61/40/186
f 62/65/187 71/73/188 61/40/189 45/24/190
f 24/4/191 23/3/192 43/22/193 42/21/194
f 23/3/195 26/6/196 46/25/197 43/22/198
f 26/6/199 28/8/200 48/27/201 46/25/202
f 28/8/203 30/10/204 50/29/205 48/27/206
f 30/10/207 32/12/208 52/31/209 50/29/210
f 32/12/211 34/14/212 54/33/213 52/31/214
f 34/14/215 36/16/216 56/35/217 54/33/218
f 36/16/219 38/18/220 58/37/221 56/35/222
f 38/18/223 40/20/224 60/39/225 58/37/226
f 40/20/227 24/4/228 42/21/229 60/39/230
f 2/74/231 1/75/232 62/65/233 63/64/234
f 3/76/235 2/74/236 63/64/237 64/66/238
f 4/77/239 3/76/240 64/66/241 65/67/242
f 5/78/243 4/77/244 65/67/245 66/68/246
f 6/79/247 5/78/248 66/68/249 67/69/250
f 7/80/251 6/79/252 67/69/253 68/70/254
f 8/81/255 7/80/256 68/70/257 69/71/258
f 9/82/259 8/81/260 69/71/261 70/72/262
f 10/83/263 9/82/264 70/72/265 71/73/266
f 1/75/267 10/83/268 71/73/269 62/65/270
s 1
f 11/84/271 12/85/272 72/86/273
f 12/87/272 13/88/274 72/89/273
f 13/90/274 14/91/275 72/92/273
f 14/93/275 15/94/276 72/95/273
f 15/96/276 16/97/277 72/98/273
f 16/99/277 17/100/278 72/101/273
f 17/102/278 18/103/279 72/104/273
f 18/105/279 19/106/280 72/107/273
f 19/108/280 20/109/281 72/110/273
f 20/111/281 11/112/271 72/113/273
