# This file uses centimeters as units for non-parametric coordinates.

mtllib stalactite2.mtl
g default
v 0.348222 2.206826 0.348222
v 0.000000 2.206826 0.500000
v -0.348222 2.206826 0.348222
v 0.277373 1.648520 0.277373
v -0.000000 1.648520 0.398270
v -0.277373 1.648520 0.277373
v 0.210139 1.250250 0.210139
v -0.000000 1.250250 0.301731
v -0.210139 1.250250 0.210139
v 0.301731 1.250250 0.000000
v -0.301731 1.250250 0.000000
v 0.210139 1.250250 -0.210139
v -0.000000 1.250250 -0.301731
v -0.210139 1.250250 -0.210139
v 0.277373 1.648520 -0.277373
v -0.000000 1.648520 -0.398270
v -0.277373 1.648520 -0.277373
v 0.348222 2.206826 -0.348222
v 0.000000 2.206826 -0.500000
v -0.348222 2.206826 -0.348222
v 0.500000 2.206826 0.000000
v 0.000000 2.206826 0.000000
v -0.500000 2.206826 0.000000
v -0.398270 1.648520 0.000000
v 0.398270 1.648520 0.000000
v 0.423358 2.231708 0.391371
v -0.000000 2.206826 0.589334
v -0.000000 1.841624 0.524584
v 0.352508 1.828108 0.376753
v -0.423358 2.206826 0.391371
v -0.352508 1.828108 0.376753
v 0.352508 1.828108 -0.376753
v 0.000000 1.841624 -0.524584
v 0.000000 2.231708 -0.589334
v 0.423358 2.231708 -0.391371
v -0.352508 1.828108 -0.376753
v -0.423358 2.206826 -0.391371
v -0.604949 2.206826 0.000000
v -0.503219 1.842221 0.000000
v 0.604949 2.231708 -0.000000
v 0.503219 1.842221 -0.000000
v 0.648764 2.231708 0.613362
v -0.000000 2.206826 0.912892
v -0.000000 2.031019 0.848142
v 0.577915 2.017769 0.598743
v -0.648764 2.206826 0.613362
v -0.577915 2.017769 0.598743
v 0.577915 2.017769 -0.598743
v 0.000000 2.031019 -0.848142
v 0.000000 2.231708 -0.912891
v 0.648764 2.231708 -0.592616
v -0.577915 2.017769 -0.598743
v -0.648764 2.206826 -0.613362
v -0.919797 2.206826 -0.000000
v -0.818067 2.017919 -0.000000
v 0.919797 2.231708 -0.202978
v 0.818067 2.017919 -0.000000
v 0.129062 0.811542 0.129062
v -0.000000 0.811542 0.185316
v 0.185316 0.811542 0.000000
v -0.129062 0.811542 0.129062
v -0.185316 0.811542 0.000000
v -0.000000 0.811542 -0.185316
v 0.129062 0.811542 -0.129062
v -0.129062 0.811542 -0.129062
v 0.068180 0.307843 0.068180
v -0.000000 0.307843 0.097897
v -0.000000 0.110100 -0.000000
v 0.097897 0.307843 0.000000
v -0.068180 0.307843 0.068180
v -0.097897 0.307843 0.000000
v -0.000000 0.307843 -0.097897
v 0.068180 0.307843 -0.068180
v -0.068180 0.307843 -0.068180
v 1.085330 1.989684 -0.543339
v 0.444024 2.044411 -0.938653
v 0.444024 2.231708 -0.938654
v 1.037198 2.231707 -0.839547
v 1.198590 2.231707 -0.202978
v 1.021235 1.948356 -0.221821
v 1.179748 2.231707 0.259307
v 1.108899 1.948206 0.062727
v 1.399697 2.059907 -0.679691
v 1.326135 2.172338 -1.131740
v 1.326135 2.231709 -1.172872
v 1.405537 2.231708 -0.736865
v 1.454828 2.231707 -0.277090
v 1.433511 2.231707 0.428565
v 1.427671 1.952445 0.170311
v 1.839447 2.054770 -0.569052
v 1.784160 2.135523 -1.057571
v 1.784160 2.231708 -1.087444
v 1.843689 2.231707 -0.756007
v 1.881472 2.231707 -0.379894
v 1.875382 1.980910 -0.334273
v 1.866114 2.231707 -0.026686
v 1.861873 1.977963 -0.116513
v 1.148359 1.772614 -0.543765
v 1.081252 1.772613 -0.280763
v 1.370342 1.772614 -0.654023
v 1.151625 1.772613 -0.044349
v 1.386806 1.772613 0.032731
v 1.682496 1.772614 -0.586655
v 1.723681 1.772614 -0.374124
v 1.705001 1.772614 -0.173834
v 1.234429 1.401817 -0.470339
v 1.172566 1.401817 -0.290176
v 1.386493 1.401818 -0.545869
v 1.236667 1.401817 -0.128226
v 1.397771 1.401817 -0.075424
v 1.600327 1.401818 -0.499719
v 1.632367 1.401817 -0.354131
v 1.615743 1.401817 -0.216926
v 1.320796 1.045358 -0.396660
v 1.264195 1.045358 -0.299621
v 1.402700 1.045358 -0.437342
v 1.414602 0.761140 -0.314352
v 1.322001 1.045358 -0.212392
v 1.408775 1.045358 -0.183952
v 1.517874 1.045358 -0.412485
v 1.540739 1.045358 -0.334068
v 1.526177 1.045358 -0.260168
v 0.601052 1.515889 -0.436771
v 0.738285 1.515889 -0.144158
v 0.672677 1.515890 -0.578916
v 0.891353 1.515890 -0.113890
v 1.001092 1.515890 -0.505618
v 0.942729 1.515889 -0.255904
v 0.720213 1.278925 -0.382936
v 0.775691 1.278925 -0.264645
v 0.749168 1.278926 -0.440399
v 0.837569 1.278926 -0.252409
v 0.881932 1.278925 -0.410767
v 0.858338 1.278925 -0.309819
vt 0.375000 0.000000
vt 0.500000 0.000000
vt 0.625000 0.000000
vt 0.375000 0.125000
vt 0.500000 0.125000
vt 0.625000 0.125000
vt 0.375000 0.250000
vt 0.500000 0.250000
vt 0.625000 0.250000
vt 0.375000 0.375000
vt 0.500000 0.375000
vt 0.625000 0.375000
vt 0.375000 0.500000
vt 0.500000 0.500000
vt 0.625000 0.500000
vt 0.375000 0.625000
vt 0.500000 0.625000
vt 0.625000 0.625000
vt 0.375000 0.750000
vt 0.500000 0.750000
vt 0.625000 0.750000
vt 0.375000 0.875000
vt 0.500000 0.875000
vt 0.625000 0.875000
vt 0.375000 1.000000
vt 0.500000 1.000000
vt 0.625000 1.000000
vt 0.875000 0.000000
vt 0.750000 0.000000
vt 0.875000 0.125000
vt 0.750000 0.125000
vt 0.875000 0.250000
vt 0.750000 0.250000
vt 0.125000 0.000000
vt 0.250000 0.000000
vt 0.125000 0.125000
vt 0.250000 0.125000
vt 0.125000 0.250000
vt 0.250000 0.250000
vt 0.375000 0.000000
vt 0.500000 0.000000
vt 0.500000 0.125000
vt 0.375000 0.125000
vt 0.625000 0.000000
vt 0.625000 0.125000
vt 0.375000 0.625000
vt 0.500000 0.625000
vt 0.500000 0.750000
vt 0.375000 0.750000
vt 0.625000 0.625000
vt 0.625000 0.750000
vt 0.750000 0.000000
vt 0.875000 0.000000
vt 0.875000 0.125000
vt 0.750000 0.125000
vt 0.125000 0.000000
vt 0.250000 0.000000
vt 0.250000 0.125000
vt 0.125000 0.125000
vt 0.375000 0.000000
vt 0.500000 0.000000
vt 0.500000 0.125000
vt 0.375000 0.125000
vt 0.625000 0.000000
vt 0.625000 0.125000
vt 0.375000 0.625000
vt 0.500000 0.625000
vt 0.500000 0.750000
vt 0.375000 0.750000
vt 0.625000 0.625000
vt 0.625000 0.750000
vt 0.750000 0.000000
vt 0.875000 0.000000
vt 0.875000 0.125000
vt 0.750000 0.125000
vt 0.125000 0.000000
vt 0.250000 0.000000
vt 0.250000 0.125000
vt 0.125000 0.125000
vt 0.375000 0.250000
vt 0.500000 0.250000
vt 0.375000 0.375000
vt 0.625000 0.250000
vt 0.625000 0.375000
vt 0.500000 0.500000
vt 0.375000 0.500000
vt 0.625000 0.500000
vt 0.375000 0.250000
vt 0.500000 0.250000
vt 0.375000 0.375000
vt 0.625000 0.250000
vt 0.625000 0.375000
vt 0.500000 0.500000
vt 0.375000 0.500000
vt 0.625000 0.500000
vt 0.375000 0.625000
vt 0.500000 0.625000
vt 0.500000 0.750000
vt 0.375000 0.750000
vt 0.125000 0.000000
vt 0.250000 0.000000
vt 0.250000 0.125000
vt 0.125000 0.125000
vt 0.375000 0.000000
vt 0.375000 0.125000
vt 0.375000 0.625000
vt 0.500000 0.625000
vt 0.500000 0.750000
vt 0.375000 0.750000
vt 0.125000 0.000000
vt 0.250000 0.000000
vt 0.250000 0.125000
vt 0.125000 0.125000
vt 0.375000 0.000000
vt 0.375000 0.125000
vt 0.375000 0.625000
vt 0.500000 0.625000
vt 0.500000 0.750000
vt 0.375000 0.750000
vt 0.125000 0.000000
vt 0.250000 0.000000
vt 0.250000 0.125000
vt 0.125000 0.125000
vt 0.375000 0.000000
vt 0.375000 0.125000
vt 0.250000 0.125000
vt 0.125000 0.125000
vt 0.125000 0.125000
vt 0.375000 0.125000
vt 0.375000 0.125000
vt 0.125000 0.125000
vt 0.250000 0.125000
vt 0.375000 0.125000
vt 0.250000 0.125000
vt 0.125000 0.125000
vt 0.125000 0.125000
vt 0.375000 0.125000
vt 0.375000 0.125000
vt 0.125000 0.125000
vt 0.250000 0.125000
vt 0.375000 0.125000
vt 0.250000 0.125000
vt 0.125000 0.125000
vt 0.125000 0.125000
vt 0.375000 0.125000
vt 0.375000 0.125000
vt 0.125000 0.125000
vt 0.250000 0.125000
vt 0.375000 0.125000
vt 0.250000 0.125000
vt 0.125000 0.125000
vt 0.125000 0.125000
vt 0.250000 0.125000
vt 0.125000 0.125000
vt 0.250000 0.125000
vt 0.250000 0.125000
vt 0.125000 0.125000
vt 0.125000 0.125000
vt 0.250000 0.125000
vt 0.125000 0.125000
vt 0.250000 0.125000
vn 0.397275 -0.251919 0.882445
vn 0.021100 -0.282214 0.959120
vn 0.016197 -0.282332 0.959180
vn 0.397275 -0.251920 0.882445
vn -0.391164 -0.267507 0.880585
vn -0.391164 -0.267507 0.880585
vn 0.390047 -0.216916 0.894880
vn 0.000000 -0.235574 0.971856
vn 0.000000 -0.235574 0.971856
vn 0.390047 -0.216916 0.894880
vn -0.390047 -0.216916 0.894880
vn -0.390047 -0.216916 0.894881
vn 0.635575 -0.438281 0.635575
vn 0.000000 -0.567692 0.823241
vn 0.000000 -1.000000 -0.000000
vn 0.823241 -0.567692 -0.000000
vn -0.635575 -0.438281 0.635575
vn -0.823241 -0.567692 -0.000000
vn 0.000000 -0.567692 -0.823241
vn 0.635575 -0.438281 -0.635575
vn -0.635575 -0.438281 -0.635575
vn 0.390047 -0.216916 -0.894880
vn 0.000000 -0.235574 -0.971856
vn 0.000000 -0.235574 -0.971856
vn 0.390047 -0.216916 -0.894880
vn -0.390047 -0.216916 -0.894881
vn -0.390047 -0.216916 -0.894880
vn 0.979418 -0.134612 -0.150402
vn 0.979418 -0.134612 -0.150402
vn 0.979418 -0.134612 -0.150402
vn 0.979418 -0.134612 -0.150402
vn -0.388847 -0.251192 -0.886398
vn -0.388847 -0.251192 -0.886398
vn -0.388847 -0.251192 -0.886398
vn -0.388847 -0.251192 -0.886398
vn 0.000000 1.000000 -0.000000
vn 0.000000 1.000000 -0.000000
vn 0.000000 1.000000 0.000000
vn 0.000000 1.000000 0.000000
vn 0.000000 1.000000 0.000000
vn 0.000000 1.000000 0.000000
vn 0.000000 1.000000 0.000000
vn 0.000000 1.000000 0.000000
vn 0.000000 1.000000 0.000000
vn -0.904008 -0.427515 -0.000000
vn -0.844716 -0.399475 -0.356195
vn -0.844716 -0.399475 -0.356195
vn -0.904008 -0.427515 -0.000000
vn -0.844716 -0.399475 0.356195
vn -0.844716 -0.399475 0.356195
vn -0.971856 -0.235574 -0.000000
vn -0.894880 -0.216916 -0.390047
vn -0.894880 -0.216916 -0.390047
vn -0.971856 -0.235574 -0.000000
vn -0.894880 -0.216916 0.390047
vn -0.894880 -0.216916 0.390047
vn 0.986896 -0.094827 -0.130557
vn 0.997155 -0.061432 -0.043672
vn 0.947628 -0.314336 -0.056518
vn 0.953372 -0.249488 -0.169816
vn 0.998422 -0.024857 0.050350
vn 0.968245 -0.243846 0.055138
vn 0.894880 -0.216916 -0.390047
vn 0.971856 -0.235574 0.000000
vn 0.971856 -0.235574 0.000000
vn 0.894880 -0.216916 -0.390047
vn 0.894880 -0.216916 0.390047
vn 0.894880 -0.216916 0.390047
vn -0.092141 0.986814 -0.133075
vn -0.092141 0.986814 -0.133075
vn -0.022033 0.999757 0.000927
vn -0.040162 0.999171 -0.006723
vn 0.000000 -0.567150 0.823615
vn 0.613191 -0.538482 0.577957
vn 0.587312 -0.541425 0.601601
vn 0.000000 -0.567150 0.823615
vn -0.000001 1.000000 0.000002
vn -0.000001 1.000000 0.000002
vn 0.000000 1.000000 -0.000000
vn -0.613191 -0.538482 0.577957
vn -0.587312 -0.541425 0.601601
vn 0.613191 -0.538482 -0.577957
vn -0.000000 -0.567149 -0.823615
vn -0.000000 -0.567149 -0.823615
vn 0.587312 -0.541425 -0.601601
vn -0.128692 0.950174 0.283914
vn -0.128692 0.950174 0.283914
vn -0.025511 0.999428 0.022184
vn -0.022351 0.999312 0.029615
vn -0.613190 -0.538482 -0.577957
vn -0.587312 -0.541425 -0.601601
vn 0.041477 0.985976 0.161652
vn 0.041477 0.985976 0.161652
vn -0.016147 0.999767 0.014338
vn -0.000001 1.000000 0.000000
vn -0.000001 1.000000 0.000000
vn 0.000000 1.000000 0.000000
vn -0.861426 -0.507883 -0.000000
vn -0.861426 -0.507883 -0.000000
vn -0.000001 1.000000 0.000000
vn -0.000001 1.000000 0.000000
vn -0.240556 0.964560 0.108430
vn -0.240556 0.964560 0.108430
vn -0.029050 0.999578 -0.000000
vn 0.861426 -0.507883 0.000000
vn 0.861426 -0.507883 0.000000
vn -0.240556 0.964560 -0.108430
vn -0.240556 0.964560 -0.108430
vn -0.019472 0.999778 0.008045
vn -0.014952 0.999869 0.006178
vn -0.000000 -0.857215 0.514959
vn 0.354403 -0.865883 0.353050
vn 0.353068 -0.865858 0.354447
vn -0.000000 -0.857215 0.514959
vn 0.000000 1.000000 -0.000000
vn -0.354403 -0.865884 0.353050
vn -0.353068 -0.865858 0.354447
vn 0.191578 -0.841337 -0.505420
vn 0.000000 -0.857215 -0.514959
vn 0.000000 -0.857215 -0.514958
vn 0.191578 -0.841337 -0.505420
vn 0.000001 1.000000 -0.000000
vn -0.016226 0.999846 0.006704
vn -0.354403 -0.865884 -0.353050
vn -0.353068 -0.865858 -0.354447
vn -0.020261 0.999760 0.008372
vn 0.000000 1.000000 0.000000
vn -0.505476 -0.862840 0.000000
vn -0.505476 -0.862840 0.000000
vn 0.000002 1.000000 0.000000
vn 0.000011 -1.000000 -0.000006
vn 0.000011 -1.000000 -0.000006
vn 0.000011 -1.000000 -0.000006
vn 0.000011 -1.000000 -0.000006
vn 0.496600 -0.847688 0.186584
vn 0.496600 -0.847688 0.186584
vn 0.388239 -0.236363 0.890732
vn 0.388239 -0.236363 0.890732
vn 0.390896 -0.207125 0.896828
vn 0.390912 -0.206931 0.896865
vn 0.890732 -0.236363 0.388239
vn 0.890732 -0.236363 0.388239
vn 0.896865 -0.206931 0.390912
vn 0.896828 -0.207125 0.390896
vn -0.388239 -0.236363 0.890732
vn -0.388239 -0.236363 0.890732
vn -0.390912 -0.206931 0.896865
vn -0.390896 -0.207125 0.896828
vn -0.890732 -0.236363 0.388239
vn -0.890732 -0.236363 0.388239
vn -0.896828 -0.207125 0.390896
vn -0.896865 -0.206931 0.390912
vn 0.388239 -0.236363 -0.890732
vn 0.388239 -0.236363 -0.890732
vn 0.390912 -0.206931 -0.896865
vn 0.390896 -0.207125 -0.896828
vn 0.890732 -0.236363 -0.388239
vn 0.890732 -0.236363 -0.388239
vn 0.896828 -0.207125 -0.390896
vn 0.896865 -0.206931 -0.390912
vn -0.890732 -0.236363 -0.388239
vn -0.890732 -0.236363 -0.388239
vn -0.896865 -0.206931 -0.390912
vn -0.896828 -0.207125 -0.390896
vn -0.388239 -0.236363 -0.890732
vn -0.388239 -0.236363 -0.890732
vn -0.390896 -0.207125 -0.896828
vn -0.390912 -0.206931 -0.896865
vn 0.394598 -0.157122 0.905321
vn 0.394598 -0.157122 0.905321
vn 0.905321 -0.157122 0.394598
vn 0.905321 -0.157122 0.394598
vn -0.394598 -0.157122 0.905321
vn -0.394598 -0.157122 0.905321
vn -0.905321 -0.157122 0.394598
vn -0.905321 -0.157122 0.394598
vn 0.394598 -0.157122 -0.905321
vn 0.394598 -0.157122 -0.905321
vn 0.905321 -0.157122 -0.394598
vn 0.905321 -0.157122 -0.394598
vn -0.905321 -0.157122 -0.394598
vn -0.905321 -0.157122 -0.394598
vn -0.394598 -0.157122 -0.905321
vn -0.394598 -0.157122 -0.905321
vn -0.018025 -0.997308 -0.071069
vn -0.018025 -0.997308 -0.071069
vn 0.023774 -0.988681 -0.148139
vn 0.077037 -0.966416 -0.245166
vn -0.125659 -0.163307 -0.978540
vn -0.125659 -0.163307 -0.978540
vn -0.179678 -0.161861 -0.970318
vn -0.177012 -0.161944 -0.970794
vn -0.000000 1.000000 0.000002
vn 0.000000 1.000000 0.000001
vn 0.000001 1.000000 0.000001
vn -0.000004 -1.000000 0.000001
vn -0.000004 -1.000000 0.000001
vn -0.000004 -1.000000 0.000001
vn -0.000004 -1.000000 0.000001
vn 0.000001 1.000000 0.000000
vn 0.554667 -0.454043 0.697273
vn 0.554667 -0.454043 0.697273
vn 0.264450 -0.544788 0.795784
vn 0.210490 -0.555038 0.804753
vn -0.224923 -0.973589 -0.039160
vn -0.224923 -0.973589 -0.039160
vn -0.224923 -0.973589 -0.039160
vn -0.224923 -0.973589 -0.039160
vn 0.054948 -0.968874 -0.241381
vn 0.049806 -0.970013 -0.237896
vn -0.128072 -0.231263 -0.964425
vn -0.133289 -0.227418 -0.964632
vn -0.000000 1.000000 0.000003
vn -0.000000 1.000000 0.000003
vn -0.000000 1.000000 0.000001
vn -0.821387 -0.569003 0.039483
vn -0.645842 -0.401258 -0.649523
vn -0.100055 -0.522730 -0.846607
vn 0.005084 -0.999427 0.033458
vn -0.000000 1.000000 -0.000000
vn 0.314729 -0.561374 0.765379
vn 0.230632 -0.558766 0.796611
vn -0.562386 -0.435407 0.702953
vn 0.066414 -0.530332 0.845184
vn -0.004484 -0.979663 -0.200600
vn -0.004484 -0.979663 -0.200600
vn 0.140399 -0.411132 -0.900699
vn 0.140399 -0.411132 -0.900699
vn 0.000001 1.000000 0.000002
vn 0.000001 1.000000 0.000002
vn 0.000001 1.000000 0.000001
vn 0.537063 -0.442998 -0.717855
vn 0.829145 -0.557091 -0.046573
vn 0.000001 1.000000 0.000000
vn 0.548721 -0.493490 0.674813
vn 0.588414 -0.449881 0.671846
vn 0.692285 -0.387790 0.608573
vn -0.940908 -0.336910 0.034406
vn -0.938268 -0.259306 -0.228938
vn -0.934096 -0.251663 -0.253241
vn -0.958218 -0.285680 -0.014325
vn -0.408756 -0.072821 -0.909734
vn -0.408756 -0.072821 -0.909734
vn -0.420391 -0.169078 -0.891451
vn -0.419947 -0.164696 -0.892480
vn -0.883262 -0.384858 0.267831
vn -0.902445 -0.318430 0.290167
vn -0.260689 -0.548323 0.794596
vn -0.260689 -0.548323 0.794596
vn -0.260689 -0.548323 0.794596
vn -0.260689 -0.548323 0.794596
vn 0.228895 -0.088616 -0.969409
vn 0.228895 -0.088616 -0.969409
vn 0.219839 -0.158117 -0.962637
vn 0.217535 -0.174460 -0.960335
vn 0.828650 -0.547666 -0.115764
vn 0.836076 -0.499611 -0.226641
vn 0.793799 -0.605517 0.056853
vn 0.461257 -0.577591 0.673521
vn 0.461257 -0.577591 0.673521
vn -0.917318 -0.249976 -0.309902
vn -0.962544 -0.271056 0.006109
vn -0.427822 -0.273999 -0.861332
vn -0.427833 -0.273910 -0.861355
vn -0.899415 -0.261912 0.349934
vn -0.299411 -0.275319 0.913538
vn -0.299411 -0.275319 0.913539
vn -0.299077 -0.279031 0.912521
vn -0.299054 -0.279295 0.912448
vn 0.203154 -0.269534 -0.941318
vn 0.203143 -0.269723 -0.941266
vn 0.948647 -0.249888 -0.193971
vn 0.967310 -0.247193 -0.056627
vn 0.966323 -0.251984 -0.052194
vn 0.944995 -0.254332 -0.205667
vn 0.965912 -0.238338 0.101041
vn 0.963435 -0.241849 0.115337
vn 0.530818 -0.222805 0.817674
vn 0.530818 -0.222805 0.817674
vn 0.530443 -0.225797 0.817096
vn 0.530428 -0.225913 0.817074
vn -0.888869 -0.256151 -0.379866
vn -0.957940 -0.286962 0.002187
vn -0.426911 -0.281092 -0.859497
vn -0.426911 -0.281092 -0.859497
vn -0.864842 -0.270232 0.423111
vn -0.298400 -0.286410 0.910454
vn -0.298400 -0.286410 0.910454
vn 0.202721 -0.276764 -0.939311
vn 0.202721 -0.276764 -0.939311
vn 0.964318 -0.260421 -0.047672
vn 0.936965 -0.263353 -0.229656
vn 0.958317 -0.248166 0.141568
vn 0.529642 -0.232050 0.815863
vn 0.529642 -0.232050 0.815863
vn -0.704731 -0.634944 0.316543
vn -0.704731 -0.634944 0.316544
vn -0.704731 -0.634944 0.316543
vn -0.704731 -0.634944 0.316543
vn -0.680857 -0.253188 -0.687262
vn -0.680857 -0.253188 -0.687263
vn -0.707188 -0.298357 -0.640990
vn -0.706064 -0.296332 -0.643164
vn 0.043964 -0.282178 0.958354
vn 0.043964 -0.282178 0.958354
vn 0.009973 -0.313403 0.949568
vn 0.004927 -0.317977 0.948086
vn 0.150086 -0.056600 -0.987051
vn 0.150086 -0.056600 -0.987051
vn 0.159976 -0.127375 -0.978868
vn 0.159617 -0.124709 -0.979270
vn 0.965593 -0.172618 0.194509
vn 0.915859 -0.142189 0.375479
vn 0.917917 -0.198716 0.343423
vn 0.957313 -0.210287 0.198322
vn 0.806742 -0.096810 0.582920
vn 0.823798 -0.139209 0.549525
vn -0.852176 -0.337735 0.399664
vn -0.852176 -0.337735 0.399664
vn -0.852176 -0.337735 0.399664
vn -0.852176 -0.337735 0.399664
vn -0.782056 -0.482799 -0.394073
vn -0.782056 -0.482799 -0.394073
vn -0.171437 -0.467895 0.866997
vn -0.171437 -0.467895 0.866997
vn 0.194817 -0.447355 -0.872880
vn 0.194817 -0.447355 -0.872880
vn 0.893771 -0.374471 0.246870
vn 0.904557 -0.370245 0.211411
vn 0.869365 -0.381167 0.314509
s 1
g singlemite1
usemtl initialShadingGroup
f 42/60/1 43/61/2 44/62/3 45/63/4
f 43/61/2 46/64/5 47/65/6 44/62/3
s 2
f 4/4/7 5/5/8 8/8/9 7/7/10
f 5/5/8 6/6/11 9/9/12 8/8/9
s 3
f 66/88/13 67/89/14 68/11/15 69/90/16
f 67/89/14 70/91/17 71/92/18 68/11/15
f 69/90/16 68/11/15 72/93/19 73/94/20
f 68/11/15 71/92/18 74/95/21 72/93/19
s 4
f 12/13/22 13/14/23 16/17/24 15/16/25
f 13/14/23 14/15/26 17/18/27 16/17/24
s off
f 90/116/28 91/117/29 92/118/30 93/119/31
f 49/67/32 52/70/33 53/71/34 50/68/35
s 5
f 18/19/36 19/20/37 22/23/38 21/22/39
f 19/20/37 20/21/40 23/24/41 22/23/38
f 21/22/39 22/23/38 2/26/42 1/25/43
f 22/23/38 23/24/41 3/27/44 2/26/42
s 6
f 54/72/45 53/73/46 52/74/47 55/75/48
f 46/64/49 54/72/45 55/75/48 47/65/50
s 7
f 24/31/51 17/30/52 14/32/53 11/33/54
f 6/6/55 24/31/51 11/33/54 9/9/56
s 8
f 93/120/57 94/121/58 95/122/59 90/123/60
f 94/121/58 96/124/61 97/125/62 95/122/59
s 9
f 15/36/63 25/37/64 10/39/65 12/38/66
f 25/37/64 4/4/67 7/7/68 10/39/65
s 10
f 1/1/69 2/2/70 27/41/71 26/40/72
s 11
f 5/5/73 4/4/74 29/43/75 28/42/76
s 10
f 2/2/77 3/3/78 30/44/79 27/41/71
s 11
f 6/6/80 5/5/73 28/42/76 31/45/81
f 15/16/82 16/17/83 33/47/84 32/46/85
s 10
f 19/20/86 18/19/87 35/49/88 34/48/89
s 11
f 16/17/83 17/18/90 36/50/91 33/47/84
s 10
f 20/21/92 19/20/93 34/48/89 37/51/94
f 23/29/95 20/28/96 37/53/94 38/52/97
s 11
f 17/30/90 24/31/98 39/55/99 36/54/91
s 10
f 3/3/100 23/29/101 38/52/97 30/44/79
s 11
f 24/31/98 6/6/80 31/45/81 39/55/99
s 10
f 18/34/102 21/35/103 40/57/104 35/56/88
s 11
f 25/37/105 15/36/82 32/59/85 41/58/106
s 10
f 21/35/107 1/1/108 26/40/72 40/57/104
s 11
f 4/4/74 25/37/105 41/58/106 29/43/75
s 10
f 26/40/72 27/41/71 43/61/109 42/60/110
s 20
f 28/42/111 29/43/112 45/63/113 44/62/114
s 10
f 27/41/71 30/44/79 46/64/115 43/61/109
s 20
f 31/45/116 28/42/111 44/62/114 47/65/117
f 32/46/118 33/47/119 49/67/120 48/66/121
s 10
f 34/48/89 35/49/88 51/69/122 50/68/123
s 20
f 33/47/119 36/50/124 52/70/125 49/67/120
s 10
f 37/51/94 34/48/89 50/68/123 53/71/126
f 38/52/97 37/53/94 53/73/126 54/72/127
s 20
f 36/54/124 39/55/128 55/75/129 52/74/125
s 10
f 30/44/79 38/52/97 54/72/127 46/64/115
s 20
f 39/55/128 31/45/116 47/65/117 55/75/129
s 10
f 35/56/88 40/57/104 56/77/130 51/76/122
s off
f 130/156/131 129/157/132 131/158/133 132/159/134
s 10
f 40/57/104 26/40/72 42/60/110 56/77/130
s 20
f 29/43/112 41/58/135 57/78/136 45/63/113
s 22
f 7/7/137 8/8/138 59/81/139 58/80/140
s 23
f 10/10/141 7/7/142 58/80/143 60/82/144
s 24
f 8/8/145 9/9/146 61/83/147 59/81/148
s 25
f 9/9/149 11/12/150 62/84/151 61/83/152
s 26
f 13/14/153 12/13/154 64/86/155 63/85/156
s 27
f 12/13/157 10/10/158 60/82/159 64/86/160
s 28
f 11/12/161 14/15/162 65/87/163 62/84/164
s 29
f 14/15/165 13/14/166 63/85/167 65/87/168
s 22
f 58/80/140 59/81/139 67/89/169 66/88/170
s 23
f 60/82/144 58/80/143 66/88/171 69/90/172
s 24
f 59/81/148 61/83/147 70/91/173 67/89/174
s 25
f 61/83/152 62/84/151 71/92/175 70/91/176
s 26
f 63/85/156 64/86/155 73/94/177 72/93/178
s 27
f 64/86/160 60/82/159 69/90/179 73/94/180
s 28
f 62/84/164 65/87/163 74/95/181 71/92/182
s 29
f 65/87/168 63/85/167 72/93/183 74/95/184
s 30
f 48/66/185 49/67/186 76/97/187 75/96/188
s 31
f 49/67/189 50/68/190 77/98/191 76/97/192
s 10
f 50/68/123 51/69/122 78/99/193 77/98/194
f 51/76/122 56/77/130 79/101/195 78/100/193
s off
f 132/159/196 131/158/197 133/160/198 134/161/199
s 10
f 56/77/130 42/60/110 81/104/200 79/101/195
s 32
f 42/60/201 45/63/202 82/105/203 81/104/204
s off
f 45/63/205 57/78/206 80/102/207 82/105/208
s 30
f 75/96/188 76/97/187 84/107/209 83/106/210
s 31
f 76/97/192 77/98/191 85/108/211 84/107/212
s 10
f 77/98/194 78/99/193 86/109/213 85/108/214
f 78/100/193 79/101/195 87/111/215 86/110/213
s 33
f 115/142/216 114/143/217 116/144/218 117/112/219
s 10
f 79/101/195 81/104/200 88/114/220 87/111/215
s 32
f 81/104/204 82/105/203 89/115/221 88/114/222
s 33
f 118/145/223 115/142/216 117/112/219 119/146/224
s 30
f 83/106/210 84/107/209 91/117/225 90/116/226
s 31
f 84/107/212 85/108/211 92/118/227 91/117/228
s 10
f 85/108/214 86/109/213 93/119/229 92/118/230
f 86/110/213 87/111/215 94/121/231 93/120/229
s 33
f 117/112/219 116/144/218 120/147/232 121/148/233
s 10
f 87/111/215 88/114/220 96/124/234 94/121/231
s 32
f 88/114/222 89/115/221 97/125/235 96/124/236
s 33
f 119/146/224 117/112/219 121/148/233 122/149/237
s 34
f 80/102/238 75/103/239 98/127/240 99/126/241
s 35
f 75/103/242 83/113/243 100/128/244 98/127/245
s 34
f 82/105/246 80/102/238 99/126/241 101/129/247
s off
f 89/115/248 82/105/249 101/129/250 102/130/251
s 36
f 83/113/252 90/123/253 103/131/254 100/128/255
s 8
f 90/123/60 95/122/59 104/132/256 103/131/257
f 95/122/59 97/125/62 105/133/258 104/132/256
s 32
f 97/125/235 89/115/221 102/130/259 105/133/260
s 34
f 99/126/241 98/127/240 106/135/261 107/134/262
s 35
f 98/127/245 100/128/244 108/136/263 106/135/264
s 34
f 101/129/247 99/126/241 107/134/262 109/137/265
s 37
f 102/130/266 101/129/267 109/137/268 110/138/269
s 36
f 100/128/255 103/131/254 111/139/270 108/136/271
s 38
f 103/131/272 104/132/273 112/140/274 111/139/275
f 104/132/273 105/133/276 113/141/277 112/140/274
s 39
f 105/133/278 102/130/279 110/138/280 113/141/281
s 34
f 107/134/262 106/135/261 114/143/282 115/142/283
s 35
f 106/135/264 108/136/263 116/144/284 114/143/285
s 34
f 109/137/265 107/134/262 115/142/283 118/145/286
s 37
f 110/138/269 109/137/268 118/145/287 119/146/288
s 36
f 108/136/271 111/139/270 120/147/289 116/144/290
s 38
f 111/139/275 112/140/274 121/148/291 120/147/292
f 112/140/274 113/141/277 122/149/293 121/148/291
s 39
f 113/141/281 110/138/280 119/146/294 122/149/295
s off
f 41/58/296 32/59/297 123/151/298 124/150/299
s 40
f 32/59/300 48/79/301 125/152/302 123/151/303
s 41
f 57/78/304 41/58/305 124/150/306 126/153/307
s 42
f 48/79/308 75/103/309 127/154/310 125/152/311
s 43
f 75/103/312 80/102/313 128/155/314 127/154/315
f 80/102/313 57/78/316 126/153/317 128/155/314
s off
f 124/150/318 123/151/319 129/157/320 130/156/321
s 40
f 123/151/303 125/152/302 131/158/322 129/157/323
s 41
f 126/153/307 124/150/306 130/156/324 132/159/325
s 42
f 125/152/311 127/154/310 133/160/326 131/158/327
s 43
f 127/154/315 128/155/314 134/161/328 133/160/329
f 128/155/314 126/153/317 132/159/330 134/161/328
